<svg width="1920" height="1080" viewBox="0 0 1920 1080" xmlns="http://www.w3.org/2000/svg"><rect width="1920" height="1080" fill="#3d1053"/><path d="M663.3475242399842,1093.9999999999998C653.4783880375763,1221.2590422761893,559.9984961614582,1388.2007105052073,489.87165398864244,1492.7992083597178C419.74481181582667,1597.3977062142283,356.2225875297487,1680.2303304371442,242.58647120308953,1721.5909871270626C128.95035487643037,1762.951643816981,-91.08814565101974,1776.2691388041692,-191.94504397131263,1740.9631484992287C-292.80194229160554,1705.6571581942883,-307.0313080081208,1619.0822367139576,-362.55491871866775,1509.7550452974194C-418.0785294292147,1400.4278538808812,-496.16478282052424,1218.0850150991398,-525.0867082345945,1085C-554.0086336486648,951.9149849008602,-602.5490542594878,818.4054794524521,-536.0864712030896,711.2449547025807C-469.6238881466913,604.0844299527092,-255.25670029723483,485.7382020344063,-126.31120989620501,442.0368515007714C2.634280504824801,398.33550096713645,125.02019101987365,401.16883430046977,237.5864712030894,449.03685150077126C350.1527513863051,496.90486870107276,478.1262956969403,621.7510966193757,549.0864712030894,729.2449547025805C620.0466467092385,836.7388127857852,673.216660442392,966.7409577238102,663.3475242399842,1093.9999999999998C653.4783880375763,1221.2590422761893,559.9984961614582,1388.2007105052073,489.87165398864244,1492.7992083597178" fill="#e9967a"/></svg>