<svg width="1920" height="1080" viewBox="0 0 1920 1080" xmlns="http://www.w3.org/2000/svg"><rect width="1920" height="1080" fill="#c26190"/><path d="M 0,1080 C 0,1080 0,180 0,180 C 126.3025641025641,154.77692307692308 252.6051282051282,129.55384615384617 372,122 C 491.3948717948718,114.44615384615385 603.8820512820513,124.56153846153845 698,149 C 792.1179487179487,173.43846153846155 867.8666666666668,212.2 974,211 C 1080.1333333333332,209.8 1216.651282051282,168.6384615384615 1309,154 C 1401.348717948718,139.3615384615385 1449.5282051282052,151.24615384615385 1544,160 C 1638.4717948717948,168.75384615384615 1779.2358974358974,174.37692307692308 1920,180 C 1920,180 1920,1080 1920,1080 Z" fill="#e9967a" opacity="0.09999999999999999"/><path d="M 0,1080 C 0,1080 0,360 0,360 C 115.0871794871795,351.64102564102564 230.174358974359,343.28205128205127 322,356 C 413.825641025641,368.71794871794873 482.3897435897436,402.5128205128206 604,406 C 725.6102564102564,409.4871794871794 900.2666666666667,382.6666666666666 1000,384 C 1099.7333333333333,385.3333333333334 1124.5435897435898,414.8205128205129 1231,397 C 1337.4564102564102,379.1794871794871 1525.5589743589744,314.05128205128204 1654,300 C 1782.4410256410256,285.94871794871796 1851.2205128205128,322.974358974359 1920,360 C 1920,360 1920,1080 1920,1080 Z" fill="#e9967a" opacity="0.19999999999999998"/><path d="M 0,1080 C 0,1080 0,540 0,540 C 122.42051282051281,553.1743589743589 244.84102564102562,566.348717948718 344,568 C 443.1589743589744,569.651282051282 519.0564102564102,559.7794871794872 616,543 C 712.9435897435898,526.2205128205128 830.9333333333334,502.5333333333333 937,501 C 1043.0666666666666,499.4666666666667 1137.2102564102563,520.0871794871795 1259,526 C 1380.7897435897437,531.9128205128205 1530.2256410256412,523.1179487179487 1645,523 C 1759.7743589743588,522.8820512820513 1839.8871794871793,531.4410256410256 1920,540 C 1920,540 1920,1080 1920,1080 Z" fill="#e9967a" opacity="0.3"/><path d="M 0,1080 C 0,1080 0,720 0,720 C 127.8692307692308,756.7410256410257 255.7384615384616,793.4820512820513 363,772 C 470.2615384615384,750.5179487179487 556.9153846153845,670.8128205128205 643,656 C 729.0846153846155,641.1871794871795 814.6000000000001,691.2666666666667 912,706 C 1009.3999999999999,720.7333333333333 1118.6846153846152,700.1205128205129 1242,693 C 1365.3153846153848,685.8794871794871 1502.6615384615384,692.251282051282 1618,699 C 1733.3384615384616,705.748717948718 1826.6692307692308,712.874358974359 1920,720 C 1920,720 1920,1080 1920,1080 Z" fill="#e9967a" opacity="0.39999999999999997"/><path d="M 0,1080 C 0,1080 0,900 0,900 C 137.0102564102564,878.1512820512821 274.0205128205128,856.3025641025641 370,870 C 465.9794871794872,883.6974358974359 520.9282051282053,932.9410256410257 628,955 C 735.0717948717947,977.0589743589743 894.2666666666667,971.9333333333333 1006,942 C 1117.7333333333333,912.0666666666667 1182.0051282051284,857.3256410256412 1271,859 C 1359.9948717948716,860.6743589743588 1473.7128205128204,918.7641025641026 1586,935 C 1698.2871794871796,951.2358974358974 1809.14358974359,925.6179487179487 1920,900 C 1920,900 1920,1080 1920,1080 Z" fill="#e9967a" opacity="0.49999999999999994"/></svg>