<svg width="1920" height="1080" viewBox="0 0 1920 1080" xmlns="http://www.w3.org/2000/svg"><rect width="1920" height="1080" fill="#ffffff"/><path d="M 0,1080 C 0,1080 0,180 0,180 C 99.95897435897436,173.12051282051283 199.91794871794872,166.24102564102563 301,160 C 402.0820512820513,153.75897435897437 504.2871794871795,148.15641025641025 623,148 C 741.7128205128205,147.84358974358975 876.9333333333334,153.13333333333335 996,172 C 1115.0666666666666,190.86666666666665 1217.9794871794873,223.31025641025641 1308,227 C 1398.0205128205127,230.68974358974359 1475.148717948718,205.625641025641 1575,193 C 1674.851282051282,180.374358974359 1797.425641025641,180.1871794871795 1920,180 C 1920,180 1920,1080 1920,1080 Z" fill="#e9967a" opacity="0.09999999999999999"/><path d="M 0,1080 C 0,1080 0,360 0,360 C 91.74871794871794,381.1923076923077 183.49743589743588,402.38461538461536 280,418 C 376.5025641025641,433.61538461538464 477.75897435897446,443.6538461538462 580,414 C 682.2410256410255,384.3461538461538 785.4666666666666,315 904,308 C 1022.5333333333334,301 1156.374358974359,356.34615384615387 1274,378 C 1391.625641025641,399.65384615384613 1493.0358974358976,387.6153846153846 1598,379 C 1702.9641025641024,370.3846153846154 1811.482051282051,365.19230769230774 1920,360 C 1920,360 1920,1080 1920,1080 Z" fill="#e9967a" opacity="0.19999999999999998"/><path d="M 0,1080 C 0,1080 0,540 0,540 C 119.8769230769231,506.43589743589746 239.7538461538462,472.8717948717949 358,496 C 476.2461538461538,519.1282051282051 592.8615384615383,598.9487179487179 683,602 C 773.1384615384617,605.0512820512821 836.8000000000002,531.3333333333334 933,510 C 1029.1999999999998,488.66666666666663 1157.9384615384615,519.7179487179488 1269,538 C 1380.0615384615385,556.2820512820512 1473.4461538461537,561.7948717948717 1579,560 C 1684.5538461538463,558.2051282051283 1802.2769230769231,549.1025641025642 1920,540 C 1920,540 1920,1080 1920,1080 Z" fill="#e9967a" opacity="0.3"/><path d="M 0,1080 C 0,1080 0,720 0,720 C 112.43333333333334,739.3384615384616 224.86666666666667,758.6769230769231 326,765 C 427.1333333333333,771.3230769230769 516.9666666666667,764.6307692307694 604,744 C 691.0333333333333,723.3692307692306 775.2666666666667,688.7999999999998 905,672 C 1034.7333333333333,655.2000000000002 1209.9666666666667,656.1692307692308 1335,680 C 1460.0333333333333,703.8307692307692 1534.8666666666668,750.5230769230769 1624,761 C 1713.1333333333332,771.4769230769231 1816.5666666666666,745.7384615384615 1920,720 C 1920,720 1920,1080 1920,1080 Z" fill="#e9967a" opacity="0.39999999999999997"/><path d="M 0,1080 C 0,1080 0,900 0,900 C 124.26923076923075,895.5641025641025 248.5384615384615,891.1282051282051 333,896 C 417.4615384615385,900.8717948717949 462.11538461538464,915.0512820512822 583,923 C 703.8846153846154,930.9487179487178 901,932.6666666666666 1008,934 C 1115,935.3333333333334 1131.8846153846155,936.2820512820513 1231,912 C 1330.1153846153845,887.7179487179487 1511.4615384615383,838.2051282051283 1640,832 C 1768.5384615384617,825.7948717948717 1844.269230769231,862.8974358974358 1920,900 C 1920,900 1920,1080 1920,1080 Z" fill="#e9967a" opacity="0.49999999999999994"/></svg>